<?xml version="1.0" encoding="UTF-8"?>
<svg width="22px" height="22px" viewBox="0 0 22 22" version="1.1" xmlns="http://www.w3.org/2000/svg" xmlns:xlink="http://www.w3.org/1999/xlink">
    <!-- Generator: Sketch 52.2 (67145) - http://www.bohemiancoding.com/sketch -->
    <title>Page 1 Copy 3</title>
    <desc>Created with Sketch.</desc>
    <defs>
        <polygon id="path-1" points="0 0 22 0 22 22 0 22"></polygon>
    </defs>
    <g id="Symbols" stroke="none" stroke-width="1" fill="none" fill-rule="evenodd">
        <g id="Print-download-email-controls" transform="translate(-92.000000, -23.000000)">
            <g id="Page-1-Copy-3" transform="translate(92.000000, 23.000000)">
                <mask id="mask-2" fill="white">
                    <use xlink:href="#path-1"></use>
                </mask>
                <g id="Clip-2"></g>
                <path d="M4.83359296,4.801119 L17.1484521,4.801119 L17.1484521,1.41088875 L4.83359296,1.41088875 L4.83359296,4.801119 Z M4.4851516,20.6249193 L17.4875296,20.6249193 L17.4875296,14.1383258 L4.4851516,14.1383258 L4.4851516,20.6249193 Z M3.09980512,15.8361093 L3.09980512,12.7707338 L18.911019,12.7707338 L18.911019,15.8361954 C19.1107543,15.8361954 19.2791332,15.8376587 19.4475122,15.8359372 C20.1340001,15.8287067 20.6045162,15.4103723 20.6081243,14.7298472 C20.62144,12.2484183 20.6219555,9.7668173 20.6067498,7.28538842 C20.6027121,6.62578007 20.1309074,6.19866581 19.4724254,6.1983215 C13.8176414,6.19582526 8.16285737,6.19573919 2.50807334,6.19857973 C1.85105177,6.19883796 1.38594784,6.62930923 1.38216791,7.29425436 C1.36807905,9.77576931 1.36807905,12.2573703 1.38216791,14.7387992 C1.38594784,15.4042608 1.85053632,15.8247471 2.50781562,15.8356789 C2.67928725,15.8385195 2.8508448,15.8361093 3.09980512,15.8361093 Z M0,6.88538842 C0.0256004746,6.83589413 0.0602212506,6.78906822 0.0754269017,6.7366473 C0.443627016,5.46296535 1.29376895,4.82143318 2.61915191,4.81979772 C2.88426287,4.81945341 3.14945973,4.81979772 3.43587578,4.81979772 L3.43587578,0 L18.5537292,0 L18.5537292,4.81979772 C18.9147131,4.81979772 19.2140153,4.81764579 19.5134034,4.82014203 C20.8727198,4.83176243 21.9646058,5.85840327 21.9795538,7.2262535 C22.007216,9.75020443 22.0061851,12.2747579 21.980241,14.7987088 C21.9660663,16.1684528 20.8807092,17.1975038 19.5217364,17.2128255 C19.325867,17.2150635 19.1299976,17.2131698 18.887824,17.2131698 L18.887824,22 L3.07832821,22 L3.07832821,17.2132559 C2.85007163,17.2132559 2.65299952,17.216785 2.45618513,17.2126533 C1.42632443,17.1907037 0.692673244,16.7035937 0.245953553,15.7811061 C0.147589313,15.5779643 0.0811827131,15.3592425 0,15.1476652 C0,12.3935442 0,9.63950936 0,6.88538842 Z" id="Fill-1" fill="#138997" mask="url(#mask-2)"></path>
                <path d="M18.9268813,8.52522266 C18.7380069,8.37246045 18.6235262,8.21144083 18.5336682,8.22412722 C18.4140077,8.24101739 18.2612417,8.37688943 18.224758,8.4935442 C18.2034383,8.56170542 18.3745213,8.76686469 18.4708352,8.77519717 C18.5858414,8.78518114 18.7134592,8.65081045 18.9268813,8.52522266 M19.9999972,8.49684717 C20.0015737,9.32131267 19.3273011,9.99842083 18.503115,9.99999724 C17.6787788,10.0015737 17.0013533,9.32686766 17.000002,8.50285256 C16.9986508,7.67831199 17.6727733,7.00157918 18.4971095,7.00000276 C19.3216709,6.99842634 19.9984208,7.67238167 19.9999972,8.49684717" id="Fill-3" fill="#138997" mask="url(#mask-2)"></path>
                <polygon id="Fill-4" fill="#138997" mask="url(#mask-2)" points="6 17 16 17 16 15 6 15"></polygon>
                <polygon id="Fill-5" fill="#138997" mask="url(#mask-2)" points="6 20 16 20 16 18 6 18"></polygon>
            </g>
        </g>
    </g>
</svg>