<svg xmlns="http://www.w3.org/2000/svg" width="299.779" height="321.604"><path fill="#fff" d="M0 95.9c.03 10.96 1.14 20.15 3.15 29.23 2.97 13.44 7.73 26.26 13.67 38.65 7.62 15.87 16.98 30.67 27.37 44.84 8.9 12.2 18.56 23.8 28.72 35 11.36 12.5 23.36 24.34 36.38 35.13 11.8 9.8 24.3 18.6 37.87 25.82 14.76 7.87 30.25 13.57 46.88 15.92 8.97 1.24 17.95 1.44 26.94.5 9.62-1.06 18.94-3.4 27.9-7.2 9.44-4 18.12-9.3 25.84-16.1 4.2-3.7 8.34-7.45 12.44-11.24 2.62-2.43 5.36-4.8 7.65-7.53 4.84-5.8 6.2-12.4 3.68-19.64-1.5-4.3-3.96-8.1-6.8-11.6-3.97-4.9-8.5-9.25-13.3-13.3-6.8-5.76-13.54-11.58-20.5-17.1-5.73-4.54-12.03-8.18-19.05-10.4-8.6-2.74-16.98-2.3-24.8 2.43-3.12 1.9-5.97 4.3-8.78 6.68-4.95 4.2-9.97 8.3-14.2 13.3-.92 1.1-2.03 2.06-3.1 3-5.52 4.86-11.9 6.95-19.22 5.96-5.7-.78-10.85-3-15.78-5.82-8.3-4.74-15.55-10.83-22.45-17.36-8.26-7.83-15.87-16.25-23.14-24.98-7.7-9.23-14.9-18.8-20.8-29.3-3.3-5.9-6.14-12-7.7-18.64-1.13-4.9-1.5-9.82-.2-14.75 1.57-5.9 5.27-10.24 10.08-13.72 3.98-2.9 8.1-5.6 11.7-9 3.7-3.47 7.7-6.63 11.14-10.33 6.06-6.53 8.36-14.44 7.43-23.3-.66-6.37-2.84-12.3-5.55-18.06-3.08-6.53-7-12.58-10.87-18.65-4.35-6.84-8.53-13.8-13.7-20.04-3.74-4.5-7.8-8.67-12.97-11.56-4.1-2.28-8.48-3.3-13.2-2.48-4.2.73-7.9 2.58-11.1 5.24-6.55 5.4-13.07 10.84-19.4 16.47-10.64 9.46-18.54 20.9-24.1 33.97C2.53 69.24.03 83.14 0 95.9zm0 0c.03-12.75 2.52-26.66 8.15-39.96 5.54-13.07 13.46-24.5 24.08-33.96 6.34-5.63 12.86-11.06 19.4-16.46 3.22-2.66 6.9-4.5 11.1-5.24 4.72-.82 9.1.2 13.23 2.5 5.18 2.9 9.23 7.07 12.97 11.58 5.18 6.26 9.36 13.2 13.72 20.04 3.87 6.07 7.8 12.1 10.87 18.64 2.72 5.76 4.9 11.7 5.56 18.08.92 8.84-1.38 16.75-7.44 23.27-3.44 3.7-7.45 6.84-11.14 10.3-3.6 3.4-7.72 6.1-11.7 9-4.82 3.5-8.52 7.84-10.07 13.74-1.3 4.92-.95 9.84.2 14.73 1.54 6.62 4.36 12.74 7.67 18.64 5.9 10.5 13.12 20.07 20.8 29.3 7.28 8.73 14.9 17.15 23.15 24.97 6.9 6.53 14.15 12.62 22.45 17.36 4.93 2.82 10.1 5.04 15.8 5.8 7.3 1 13.68-1.1 19.2-5.93 1.08-.95 2.18-1.9 3.1-3 4.23-4.98 9.25-9.1 14.2-13.28 2.8-2.38 5.65-4.8 8.78-6.68 7.8-4.73 16.18-5.17 24.8-2.44 7.02 2.24 13.32 5.88 19.03 10.4 7 5.54 13.74 11.36 20.5 17.1 4.8 4.06 9.37 8.4 13.34 13.3 2.85 3.53 5.3 7.3 6.82 11.6 2.52 7.26 1.16 13.86-3.68 19.65-2.3 2.74-5.03 5.1-7.66 7.53-4.1 3.8-8.24 7.53-12.43 11.23-7.7 6.84-16.4 12.1-25.87 16.1-8.93 3.8-18.25 6.2-27.9 7.2-9 1-17.96.78-26.92-.5-16.63-2.34-32.12-8.04-46.9-15.9-13.54-7.23-26.03-16.03-37.84-25.82-13.02-10.8-25.02-22.62-36.38-35.13-10.16-11.2-19.8-22.8-28.75-35-10.4-14.18-19.76-28.98-27.38-44.85-5.94-12.4-10.7-25.2-13.67-38.65-2-9.1-3.12-18.28-3.15-29.23z"/></svg>